<svg version="1.2" xmlns="http://www.w3.org/2000/svg" viewBox="0 0 469 469" width="469" height="469"><style></style><path fill-rule="evenodd" d="m62.8 253.7c4.9-15.5 7.8-28.6 10.2-44.5 3.8-24.3 8-47.8 14-71.6 2.4-9.9 4-24 11.3-32.1 9.2-10.4 26.7-10.7 39.1-13.2 38.7-7.9 79.4-10.5 119-10.5 28 0 54.9 2.5 82 9.3 8.5 2.1 22.6 4.5 25.8 14.5 12.1 38.3 22.8 77.1 33.2 116.4 3.4 12.8 16 28 9.8 41.3-1.2 2.6-11.7 5.4-14 6.3-16.5 6.5-34.4 8.2-51.1 14.1-53.2 18.8-121.5 21.6-176.9 14.1-11.9-1.6-23.8-0.5-35.9-2.6-17.9-3-38.1-9.6-54.1-14.8-21.9-7.2-16.8-12.4-12.4-26.7z"/><path fill-rule="evenodd" d="m44.7 293c-16.5 9.4-21.9 14.8-33.6 31.6-1.9 2.6-7.9 5.8-8.6 9.2-1.8 9.7 11 13.5 17.5 17.9 4.6 3.2 8.7 4.7 13.6 7.2 2.4 1.2 3.7 2.8 6.5 4 16.5 7.4 36 11.4 53.8 14.8 92.5 17.5 177.8 15.1 270-3.4 29.3-5.9 52.7-10.8 78.5-26.7 5.9-3.5 22-7.4 22.6-15.8 0.6-10-8.6-10.9-12.7-15.3-4.3-4.8-8.2-7.5-11.1-13.1-2.5-4.9-20.1-24.1-26.8-23.7-13 0.9-27.6 12.9-40.6 15.9-47 11.1-90.9 27.2-139.8 26.3-23.3-0.4-47 1.2-70.2-1.3-23.3-2.5-47.2-5-69.6-12-13.5-4.2-17.7-9.2-32.7-13.9"/></svg>