<svg xmlns="http://www.w3.org/2000/svg">
  <symbol id="hat" viewBox="0 0 48 32">
    <path d="M40.3,12.1c0.2,1,0.5,2,0.7,3c0,0.1,0,0.2,0.1,0.2c0.1,0.5,0.2,1,0.4,1.5c0,0.2,0.1,0.3,0.1,0.5
	c0,0.2,0.1,0.5,0.2,0.7c0,0.2,0,0.2,0.1,0.4c0.1,0.3,0.1,0.5-0.1,0.7c-1,0.7-2.2,1-3.3,1.3c-0.1,0-0.2,0.1-0.3,0.1
	c-2.9,0.9-5.9,1.5-8.8,2.1c-0.1,0-0.2,0-0.3,0.1c-1.8,0.3-3.5,0.4-5.3,0.4c-0.2,0-0.4,0-0.6,0c-0.4,0-0.9,0-1.3,0
	c-0.6,0-1.1,0-1.6,0c-0.4,0-0.9,0-1.3,0c-0.2,0-0.4,0-0.6,0c-1.6,0-3.2-0.1-4.8-0.4c-0.1,0-0.2,0-0.3-0.1c-0.2,0-0.4-0.1-0.5-0.1
	c-0.3-0.1-0.5-0.1-0.8-0.2c-2-0.4-4-1.1-5.8-2c0.1-0.4,0.2-0.9,0.3-1.3c0.3-1.1,0.4-2.2,0.5-3.3c0.1-0.8,0.2-1.5,0.3-2.3
	c0.1-0.6,0.2-1.2,0.3-1.8c0.2-1.4,0.5-2.7,0.7-4.1c0-0.3,0.1-0.5,0.1-0.8c0.1-0.6,0.7-2.2,0.8-2.5c0.4,0,0.8,0.1,1.2,0.3
	c0.5,0.2,0.9,0.2,1.4,0.3c0.1,0,0.5,0.1,0.6,0.1c1,0.1,1.6,0.2,2.6,0.3c0.1,0,1,0.1,1.1,0.1c2.1,0.2,3.4,0.2,5.5,0.2
	c0.1,0,1.4,0,1.4,0c2.9,0,5.1-0.1,8-0.7c0.6-0.1,2.2-0.4,2.9-0.4c1.7-0.1,2.2-0.7,3.8-0.7c0,0.2,0.7,1.4,0.8,1.6
	c0,0.1,0.1,0.1,0.1,0.2c0.5,1,0.7,1.6,0.9,2.7c0,0.3,0.1,0.3,0.1,0.6c0,0.1,0,0.2,0.1,0.4c0.1,0.5,0.2,1,0.3,1.5 M47.6,25.2
	c0.2,0.2,0.2,0.2,0.4,0.4c0,0.2,0,0.2-0.1,0.4c-0.2,0.2-0.4,0.3-0.6,0.5c-0.1,0.1-0.2,0.2-0.4,0.3c-0.1,0-0.1,0.1-0.2,0.1
	c-0.3,0.2-0.5,0.4-0.8,0.7c-0.6,0.5-1.2,0.8-2,1c-0.1,0-0.2,0.1-0.3,0.1c-0.2,0.1-0.4,0.1-0.6,0.2c-0.3,0.1-0.6,0.2-0.8,0.3
	c-1.1,0.4-2.2,0.7-3.3,0.9c-0.3,0.1-0.5,0.1-0.8,0.2c-0.2,0-0.4,0.1-0.5,0.1c-0.1,0-0.2,0-0.3,0.1c-1.1,0.2-2.2,0.4-3.3,0.5
	c-0.2,0-0.4,0.1-0.6,0.1c-0.5,0.1-1.1,0.1-1.6,0.2c-0.2,0-0.4,0.1-0.7,0.1c-0.6,0.1-1.3,0.2-2,0.2c-0.2,0-0.4,0-0.6,0.1
	c-2.1,0.2-4.2,0.2-6.3,0.2c-0.4,0-0.9,0-1.3,0c-2.5,0-4.9,0-7.4-0.5c-0.4-0.1-0.7-0.1-1.1-0.2c-0.6-0.1-1.1-0.2-1.7-0.3
	c-0.3-0.1-0.6-0.1-1-0.2c-3-0.5-5.7-1-8.2-2.8c-0.4-0.3-0.8-0.5-1.2-0.8C0.2,27,0.2,27,0,26.7c0-0.4,0-0.6,0.2-0.9
	c0-0.1,0.1-0.1,0.2-0.2c0.4,0.1,0.7,0.2,1,0.4c0.1,0.1,0.2,0.1,0.3,0.2c0.1,0.1,0.2,0.1,0.3,0.2c2.3,1.3,4.6,2,7.1,2.6
	c0.1,0,0.1,0,0.2,0.1c1.5,0.3,3.1,0.5,4.7,0.5c0.2,0,0.3,0,0.5,0c0.6,0,1.1,0,1.7,0c0.1,0,0.2,0,0.4,0c0.9,0,1.9,0,2.8,0.1
	c0.1,0,0.3,0,0.4,0c3.6,0.1,3.6,0.1,7.3,0c0.1,0,0.3,0,0.4,0c1.3-0.1,2.5-0.3,3.8-0.5c0.1,0,0.1,0,0.2,0c0.1,0,0.1,0,0.2,0
	c0.6-0.1,1.1-0.1,1.7-0.2c1.7-0.2,3.2-0.4,4.8-0.9c0.8-0.3,1.6-0.4,2.4-0.5c1.1-0.1,2-0.4,3-0.7c0.2-0.1,0.5-0.2,0.8-0.3
	c0.9-0.3,1.7-0.6,2.4-1.1C46.9,25.1,47.1,25.1,47.6,25.2L47.6,25.2z M26,0.1c0.4,0,0.7,0,1.1,0c2,0,3.9,0.1,5.8,0.5
	c0.3,0.1,0.5,0.1,0.8,0.2c0.2,0,0.2,0,0.4,0.1C34.5,1,34.8,1,35.2,1.1c0.7,0.1,1,0.3,1.6,0.8c0.2,0.2,0.6,0.6,0.6,0.7
	c-0.4,0.1-1.2,0.1-1.7,0.2c-0.1,0-0.4,0.1-0.5,0.1C35,3,34.8,3,34.6,3c-0.1,0-0.3,0.1-0.4,0.1c-0.5,0.1-0.9,0.2-1.4,0.2
	c-1,0-2,0.1-3,0.3c-2.8,0.5-5.6,0.6-8.4,0.6c-0.4,0-0.7,0-1.1,0c-2.4,0-4.8-0.1-7.2-0.5c-0.3,0-0.7-0.1-1-0.1
	c-0.9-0.1-1.9-0.2-2.8-0.5c0-0.2,0.6-0.8,0.7-0.9c0.8-0.5,0.8-0.6,1.6-0.8c0.2-0.1,0.2,0,0.3-0.1c2.3-0.6,4.6-0.8,7-0.9
	c1-0.1,1.9-0.1,2.9-0.2C23.4,0.2,24.6,0.1,26,0.1L26,0.1z M44.7,23c0.4,0.1,0.7,0.4,1.1,0.7c0,0.1,0.1,0.2,0.1,0.3
	c-4,2.7-9.4,3.5-14,4.1c-0.1,0-0.2,0-0.3,0c-4.8,0.7-9.8,0.6-14.6,0.2c-0.3,0-0.6-0.1-0.9-0.1c-3.8-0.3-7.6-0.7-11.2-2
	c-0.1,0-0.2-0.1-0.3-0.1c-0.3-0.1-0.7-0.2-1-0.4c-0.1,0-0.2-0.1-0.3-0.1c-0.6-0.2-1.2-0.5-1.7-1c-0.1-0.2-0.1-0.2-0.1-0.4
	C1.8,24,1.8,24,2,23.8c0.1-0.1,0.1-0.1,0.2-0.2c0.1,0,0.1-0.1,0.2-0.2c0.4,0.1,0.7,0.3,1,0.6c1.5,1.1,3.2,1.4,5,1.7
	c0.5,0.1,1,0.2,1.4,0.3c1.3,0.3,2.5,0.5,3.8,0.6c0.1,0,0.2,0,0.2,0c0.6,0.1,1.2,0.1,1.8,0.2c0.2,0,0.2,0,0.3,0
	c1.7,0.2,3.4,0.2,5.2,0.3c0.1,0,0.2,0,0.4,0c6.6,0.2,13-0.8,19.3-2.7c0.2-0.1,0.2-0.1,0.3-0.1c1.3-0.4,2.5-0.9,3.6-1.5
	C44.6,23.1,44.7,23,44.7,23L44.7,23z M42.6,20.2c0.3,0.3,1.1,1.2,1.2,1.6c0.1,0.2-0.2,0.4-0.5,0.6c-0.2,0.1-0.2,0.1-0.5,0.2
	c-0.1,0-0.2,0.1-0.3,0.1c-0.1,0-0.2,0.1-0.4,0.1c-0.1,0-0.2,0.1-0.4,0.1c-0.4,0.1-0.7,0.2-1.1,0.3c-0.1,0-0.1,0-0.3,0.1
	c-0.5,0.2-1.1,0.3-1.6,0.5c-0.2,0.1-0.4,0.1-0.6,0.2c-1.2,0.4-2.4,0.5-3.6,0.6c-1.1,0.1-2.2,0.3-3.3,0.6c-0.1,0-0.2,0-0.3,0.1
	c-0.4,0.1-0.8,0.2-1.3,0.3c-2.2,0.5-4.4,0.7-6.7,0.7c-0.2,0-0.4,0-0.7,0c-2.1,0-4.2-0.1-6.3-0.2c-0.1,0-0.2,0-0.4,0
	c-2.1-0.1-4.1-0.4-6.1-0.9c-0.1,0-0.2-0.1-0.4-0.1c-1.7-0.5-3.8-1.4-5.4-2.3c0-0.1-0.4-0.5,0.5-1c0.4-0.2,0.6-0.2,1.1-0.1
	c0.3,0.1,0.5,0.2,0.8,0.4c0.7,0.3,1.4,0.5,2.1,0.7c0.5,0.1,0.9,0.3,1.3,0.4c1.2,0.5,2.4,0.7,3.7,0.9c0.3,0.1,0.5,0.1,0.8,0.2
	c1.1,0.2,2.2,0.2,3.3,0.2c0.2,0,0.4,0,0.6,0c0.4,0,0.8,0,1.2,0c0.5,0,1,0,1.5,0c3.7,0,3.7,0,7.3-0.2c0.1,0,0.2,0,0.3,0
	C32,23.8,36,23,39.7,21.7c0.1,0,0.1-0.1,0.2-0.1C40.9,21.1,41.7,20.7,42.6,20.2L42.6,20.2z" />
  </symbol>

  <symbol id="home" viewBox="0 0 24 24" stroke-width="1.5" stroke="currentColor">
    <path stroke-linecap="round" stroke-linejoin="round" d="m2.25 12 8.954-8.955c.44-.439 1.152-.439 1.591 0L21.75 12M4.5 9.75v10.125c0 .621.504 1.125 1.125 1.125H9.75v-4.875c0-.621.504-1.125 1.125-1.125h2.25c.621 0 1.125.504 1.125 1.125V21h4.125c.621 0 1.125-.504 1.125-1.125V9.75M8.25 21h8.25" />
  </symbol>
</svg>