<svg xmlns="http://www.w3.org/2000/svg">
  <symbol id="hat" viewBox="0 0 469 469">
    <path d="m393 184q3.5 14.5 7 29 0.3 1.2 0.6 2.4 1.7 7.1 3.4 14.3 0.5 2.4 1.1 4.7 0.7 3.3 1.5 6.6c0.4 1.9 0.4 1.9 0.9 3.8 0.5 2.9 0.7 4.5-0.5 7.2-9.5 6.4-21.1 9.7-32 13q-1.2 0.4-2.5 0.8c-28 8.5-56.9 14.8-85.7 20.3q-1.4 0.2-2.8 0.5c-17.1 3.1-34.4 3.7-51.8 3.7q-3 0-6 0-6.3 0-12.5 0-8-0.1-15.9 0-6.2 0-12.5 0-2.9 0-5.8 0c-15.7 0-31.2-0.8-46.6-4.3q-1.2-0.2-2.5-0.5-2.6-0.6-5.2-1.2-3.9-0.8-7.8-1.7c-19.8-4.3-38.3-10.4-56.4-19.6 0.9-4.3 1.9-8.6 3-12.8 2.6-10.6 3.9-21.2 4.9-32 0.8-7.4 1.8-14.6 3.3-21.9 1.1-5.8 1.9-11.7 2.7-17.6 1.9-14 4.4-25.8 7.1-39.7q0.7-3.7 1.4-7.5c1.2-6.1 6.3-21.1 7.4-24.5 3.9 0.4 7.6 1.1 11.2 2.6 4.7 1.7 8.5 2.2 13.4 3 0.8 0.1 5.3 0.8 6.1 1 9.3 1.4 15.4 1.8 24.8 2.6 1.4 0.2 9.4 0.7 10.9 0.8 20.5 1.8 33 2.3 53.5 2.3 0.9 0 13.2-0.2 14-0.2 28.5-0.1 49.5-0.5 77.3-6.7 6-1.3 21.6-3.9 27.7-4.3 16.5-1 21.1-7 37.3-6.5 0.3 2.3 6.5 13.4 7.8 15.8q0.5 1.1 1.1 2.1c4.9 9.7 6.9 15.2 8.7 25.9 0.4 2.5 0.8 3 1.2 5.5q0.3 1.8 0.6 3.6 1.2 7.3 2.6 14.5m-305-14"/><path  d="m463 311c2.4 1.8 2.4 1.8 4 4 0 1.8 0 1.8-1 4-2 1.7-3.9 3.3-6.1 4.8q-1.8 1.3-3.5 2.7-0.9 0.6-1.8 1.3c-2.6 2-5.1 4.2-7.5 6.5-5.9 4.8-12.1 7.7-19.2 10.1q-1.3 0.4-2.6 0.9-2.7 0.9-5.4 1.8-4.1 1.4-8.1 2.8c-10.5 3.6-21 6.5-31.9 8.7-2.6 0.6-5.3 1.2-7.9 1.8q-2.6 0.6-5.2 1.2-1.2 0.3-2.5 0.6c-10.6 2.3-21.5 3.5-32.3 4.8q-3.1 0.4-6.2 0.8-7.8 0.9-15.6 1.9-3.1 0.4-6.3 0.8-9.4 1.1-18.9 2.2-2.8 0.3-5.7 0.6c-20.4 2.4-40.9 2.1-61.4 2.1q-6.2 0-12.5 0.1c-24.3 0.2-47.8-0.4-71.7-4.8q-5.4-1-10.7-1.9-8.1-1.3-16.1-2.7-4.7-0.9-9.4-1.7c-28.6-5-55.5-10-79.4-27.2-3.9-2.8-7.9-5.3-12-7.8-2.1-1.4-2.1-1.4-4.1-3.4-0.4-3.5-0.4-5.4 1.5-8.4q0.7-0.8 1.5-1.6c3.7 0.6 6.3 1.5 9.5 3.4q1.2 0.8 2.5 1.5 1.4 0.8 2.8 1.7c22.1 12.8 44.2 19.8 69.2 25.2q1 0.2 2.1 0.5c15 3.2 29.8 5 45.1 5.3q2.3 0 4.6 0.1 8.1 0.2 16.2 0.3 1.7 0 3.4 0.1 13.5 0.2 27 0.5 1.9 0 3.8 0c35.3 0.9 35.3 0.9 70.5-0.3q1.9-0.1 3.9-0.2c12.3-0.9 24.5-2.7 36.6-4.6q1.1-0.2 2.1-0.3 1-0.2 2-0.4c5.5-0.8 11-1.4 16.5-1.9 16.1-1.5 30.8-3.9 46.2-8.9 7.8-2.5 15.4-4 23.4-5.1 10.2-1.4 19.6-3.6 29.3-7.1q3.6-1.3 7.3-2.5c8.4-2.9 16.2-6.1 23.7-10.9 3.8-2.3 6.1-2.7 10.3-1.4z"/><path  d="m254.2 67.7q5.3 0.1 10.6 0c19 0 37.4 1.1 56 5.2q3.7 0.8 7.5 1.7c1.7 0.3 1.7 0.3 3.5 0.7 3.4 0.8 6.9 1.4 10.4 1.9 7 1.2 10 3 15.5 7.4 1.9 1.5 6.2 5.8 6.2 7.2-4.3 1.1-11.7 0.9-16 2.1-1.4 0.3-3.6 0.7-5 1-2.1 0.5-3.4 0.7-5.5 1.3q-1.9 0.4-3.9 1c-4.5 1-8.9 1.9-13.5 1.9-9.8 0.3-19.1 1.4-28.7 3.3-27 5.3-54 6.1-81.5 6q-5.2 0-10.4 0.1c-23.5 0.1-46.2-1.2-69.4-4.5q-4.8-0.6-9.5-1.2c-9-1.2-18.8-1.7-27.2-5.2 0-2.2 5.5-8.1 6.8-9 7.8-5.2 8.2-5.8 15.4-8.2 1.6-0.5 1.6-0.4 3.3-0.9 22.2-5.8 44.5-7.6 67.4-8.5 9.3-0.5 18.5-1 27.8-1.8 13.4-1.2 26.8-1.5 40.2-1.5z"/><path  d="m435.7 289.2c4 1.4 7.1 4.3 10.3 7.2q0.5 1.5 1 3.1c-38.6 25.9-91 33.5-136.1 40.2q-1.5 0.2-3 0.4c-46.9 7.1-94.5 5.9-141.6 1.9q-4.4-0.4-8.9-0.7c-36.8-3-73.5-6.3-108.4-19.2q-1.5-0.5-3-1-4.8-1.8-9.5-3.6-1.5-0.5-3-1.1c-6-2.3-12-5-16.5-9.7-0.8-2.1-0.8-2.1-1-4.1 1.5-2 1.5-2 3.5-3.9q1.1-1 2.1-1.9 0.8-0.7 1.6-1.5c3.8 1.4 6.6 3 9.8 5.5 14.6 10.3 31.2 13.7 48.4 16.6 4.7 0.9 9.3 1.7 14 2.9 12.2 3.1 24.4 4.9 36.9 6.2q1.2 0.1 2.4 0.2 8.7 0.9 17.4 1.6c1.5 0.2 1.5 0.2 2.9 0.3 16.7 1.5 33.3 2.4 50 3q1.8 0.1 3.6 0.2c63.6 2.2 126.1-7.6 186.8-26.1 1.5-0.5 1.5-0.5 2.9-0.9 12.4-3.8 23.9-8.4 35.3-14.6q1-0.5 2.1-1z"/><path  d="m414.7 262.1c2.8 2.7 10.4 11.7 11.3 15.5 0.5 2.1-1.9 3.9-5 6-2 1.2-2.1 1.1-4.9 2q-1.5 0.4-3 1-1.7 0.5-3.4 1-1.6 0.5-3.4 1.1-5.1 1.6-10.3 3.2c-1.4 0.4-1.4 0.4-2.9 0.9q-7.8 2.4-15.6 4.6-3 0.9-6.1 1.9c-11.3 3.4-22.9 4.4-34.6 5.7-10.7 1.2-21.3 3.1-31.8 5.4q-1.2 0.3-2.5 0.6-6.2 1.3-12.3 2.7c-21.8 4.9-42.6 6.7-64.9 6.6q-3.2 0-6.4 0c-20.4-0.1-40.8-0.6-61.3-1.7q-1.6-0.1-3.4-0.2c-20.1-1-39.5-4-58.9-9.2q-1.8-0.5-3.6-1c-16.8-4.5-37.3-13.7-52.6-22 0-1.3-3.6-4.9 4.9-9.6 3.9-2.2 6.1-2.2 10.4-1q3.8 1.6 7.5 3.4c6.6 2.9 13.1 5.2 20.1 7.1 4.4 1.2 8.6 2.6 12.8 4.3 11.5 4.4 23.4 6.4 35.5 8.5q4 0.8 7.9 1.7c10.7 2.4 21.4 2.1 32.3 2.1q2.7 0 5.4 0 5.7 0 11.4 0 7.2 0 14.4 0c35.4 0.3 35.4 0.3 70.7-2.4q1.6-0.2 3.2-0.4c37.6-5 76.3-13 112.1-25.3q1-0.4 2.1-0.7c8.8-3.1 16.8-7.2 24.9-11.8z"/>
  </symbol>
</svg>